<?xml version="1.0" encoding="utf-8"?>
<!-- Generator: Adobe Illustrator 19.0.0, SVG Export Plug-In . SVG Version: 6.00 Build 0)  -->
<svg version="1.1" xmlns="http://www.w3.org/2000/svg" xmlns:xlink="http://www.w3.org/1999/xlink" x="0px" y="0px" width="125px"
	 height="20px" viewBox="0 0 125 20" style="enable-background:new 0 0 125 20;" xml:space="preserve">
<style type="text/css">
	.st0{fill:#FFFFFF;}
</style>
<g id="Calque_1">
</g>
<g id="Calque_2">
	<g>
		<g>
			<path class="st0" d="M26.4,0.8c2.2,0,4.4,0,6.6,0c0,0.1,0,0.2,0,0.3c-0.5,0-1.1,0-1.6,0c0,5.9,0,11.8,0,17.6c0.6,0,1.3,0,1.9,0
				c0.7-0.1,1.2-0.6,1.6-1.1c1.1-1.6,1.8-3.5,2.3-5.5c0.1-0.5,0.2-1,0.5-1.4c0.1,0.6,0,1.1,0.1,1.7c0,2.2,0,4.4,0,6.7
				c-3.7,0-7.5,0-11.2,0v-0.3c0.5,0,1.1,0,1.6,0c0-5.9,0-11.8,0-17.7c-0.5,0-1.1,0-1.6,0V0.8L26.4,0.8z"/>
			<path class="st0" d="M38.3,1.1c-0.3-0.3,0.2-0.2,0.4-0.3c3.6,0,7.2,0,10.8,0c0,2.3,0,4.5,0,6.8c-0.1,0-0.2,0-0.2,0
				C49,6,48.6,4.3,47.7,2.8c-0.5-0.8-1.3-1.5-2.3-1.6c-0.7-0.1-1.4-0.1-2.1,0c0,2.8,0,5.7,0,8.5c0.7,0,1.6,0.1,2.1-0.6
				c0.8-1.1,1-2.4,1.1-3.7c0.2,0.1,0.2,0.3,0.2,0.5c0,2.7,0,5.4,0,8.1c0,0.2,0,0.3-0.2,0.4c-0.1-1.3-0.2-2.7-1.1-3.7
				C44.8,10,44,10,43.2,10c0,2.9,0,5.8,0,8.7c1,0,2,0.1,2.9-0.2c0.8-0.3,1.3-0.9,1.7-1.6c0.9-1.5,1.3-3.1,1.8-4.7
				c0.1-0.3,0.1-0.6,0.3-0.7c0.1,2.5,0,5.1,0,7.6c-3.9,0-7.8,0-11.6,0c0-0.1,0-0.2,0-0.3c0.5,0,1.1,0,1.6-0.1c0-5.9,0-11.8,0-17.6
				C39.4,1.1,38.9,1.1,38.3,1.1L38.3,1.1z"/>
			<path class="st0" d="M67.9,0.8c3.7,0,7.4,0,11.2,0c0,2.3,0,4.6,0,6.9c-0.1-0.1-0.2-0.2-0.2-0.3c-0.3-1.5-0.6-2.9-1.4-4.3
				c-0.5-0.9-1.2-1.7-2.2-1.9c-0.8-0.2-1.6-0.1-2.4-0.1c0,2.8,0,5.7,0,8.5c0.7,0,1.6,0.1,2.1-0.6c0.8-1.1,1-2.4,1.1-3.7
				c0.1,0,0.2,0,0.2,0c0,2.9,0,5.8,0,8.8c-0.1,0-0.2,0-0.2,0c-0.1-1.2-0.3-2.6-1-3.6C74.5,10,73.6,10,72.9,10c0,2.8,0,5.7,0,8.5
				c-0.1,0.2,0.2,0.2,0.3,0.2c0.7,0,1.5,0.1,2.2-0.1c0.8-0.2,1.5-0.8,1.9-1.6c1-1.7,1.5-3.6,2-5.4c0-0.1,0.1-0.2,0.2-0.2
				c0,2.5,0,5.1,0,7.6c-3.9,0-7.8,0-11.6,0c0-0.1,0-0.2,0-0.3c0.5,0,1.1,0,1.6-0.1c0-5.9,0-11.8,0-17.7c-0.5,0-1.1,0-1.6,0
				C67.9,1,67.9,0.9,67.9,0.8L67.9,0.8z"/>
			<path class="st0" d="M79.8,0.8c2.1,0,4.2,0,6.3,0l0.1,0.2c-0.5,0.1-1.2-0.1-1.6,0.2c-0.1,0.5,0.1,1,0.2,1.4
				c0.8,3.7,1.7,7.5,2.5,11.2c0.9-3.5,1.7-7.1,2.6-10.7c0.1-0.6,0.3-1.3,0-1.8c-0.3-0.5-0.9-0.3-1.4-0.3c0-0.1,0-0.2,0-0.3
				c1.2,0,2.4-0.1,3.6,0.1c0,0.3-0.4,0.2-0.6,0.2c-0.3,0-0.6,0.2-0.8,0.5c-0.3,0.6-0.4,1.3-0.5,1.9c-1.2,5.2-2.5,10.5-3.7,15.7
				c-0.4,0-0.9,0-1.3,0c-1.3-5.7-2.5-11.3-3.8-17c-0.1-0.4-0.2-0.9-0.6-1.1c-0.3-0.1-0.7-0.1-1-0.1L79.8,0.8L79.8,0.8z"/>
			<path class="st0" d="M90.7,9.5c0.1-2.4,0.6-4.8,2.1-6.8c0.7-1,1.8-1.8,3.1-2.1c1.4-0.3,2.9,0,4.1,1c1.7,1.4,2.5,3.4,2.9,5.5
				c0.4,2.5,0.4,5.1-0.4,7.5c-0.5,1.6-1.4,3.2-2.9,4.1c-1.3,0.9-3.2,1-4.6,0.3c-1.3-0.6-2.3-1.8-2.9-3.1C91,14,90.6,11.7,90.7,9.5z
				 M94.3,10c0.1,2.2,0,4.5,0.5,6.7c0.2,0.8,0.4,1.6,1,2.1c0.4,0.4,1,0.4,1.5,0.3c0.7-0.2,1.1-1,1.3-1.7c0.5-1.5,0.6-3,0.7-4.6
				c0-1.3,0.1-2.7,0-4c0-1.8-0.1-3.7-0.5-5.5c-0.2-0.8-0.4-1.7-1.1-2.2c-0.4-0.3-0.9-0.3-1.4-0.2c-0.5,0.2-0.8,0.6-1,1
				c-0.4,0.9-0.6,1.8-0.7,2.8C94.4,6.4,94.4,8.2,94.3,10z"/>
			<path class="st0" d="M103.3,0.8c2.2,0,4.4,0,6.6,0c0,0.1-0.1,0.2-0.1,0.2c-0.5,0.1-1,0-1.6,0.1c-0.1,1.4,0,2.9,0,4.3
				c0,4.4,0,8.9,0,13.3c0.6,0.1,1.1,0,1.7,0.1l-0.1,0.2c-2.2,0-4.4,0-6.6,0c0-0.1,0-0.2,0-0.3c0.5,0,1.1,0,1.6-0.1
				c0-5.6,0-11.2,0-16.8c0-0.3,0-0.6-0.1-0.8c-0.5,0-1.1,0-1.6,0C103.2,1,103.3,0.9,103.3,0.8L103.3,0.8z"/>
			<g>
				<path class="st0" d="M67.7,9.3c-0.1-2.2-0.6-4.5-1.9-6.3c-1-1.3-2.6-2.2-4.2-2.2c-2.3,0-4.6,0-7,0c0,0.1,0.1,0.2,0.1,0.2
					c0.5,0,1,0,1.6,0.1c0,5.9,0,11.8,0,17.6c-0.6,0.1-1.1,0.1-1.7,0.1c0,0.1,0.1,0.2,0.1,0.3c2.4,0,4.7,0,7.1,0
					c1.8-0.1,3.4-1.2,4.3-2.6C67.4,14.4,67.8,11.8,67.7,9.3z M63.6,16c-0.2,0.9-0.4,1.8-1.2,2.4c-0.8,0.5-1.9,0.3-2.9,0.3
					c0-5.9,0-11.7,0-17.6c0.9,0,1.8-0.1,2.6,0.2c0.7,0.3,1.1,1,1.3,1.7C63.9,4.5,64,6,64,7.5C64.1,10.3,64.2,13.2,63.6,16z"/>
			</g>
			<path class="st0" d="M110.3,0.8c2.1,0,4.2,0,6.3,0c1.1,0,2.3,0,3.3,0.6c1,0.5,1.6,1.6,1.7,2.6c0.2,1.4,0.2,3-0.7,4.2
				c-0.7,1-2,1.6-3.2,1.6c1.2,0.2,2.5,0.7,3.1,1.8c1,1.8,0.5,3.9,1.1,5.8c0.1,0.3,0.3,0.5,0.6,0.5c0.3,0,0.5-0.3,0.7-0.5
				c0.3-0.7,0.3-1.5,0.3-2.2c0,0,0.1,0,0.2,0c0,1.1-0.1,2.3-0.7,3.2c-0.6,0.9-1.9,1.2-2.9,0.8c-1-0.3-1.4-1.3-1.6-2.3
				c-0.4-1.6-0.3-3.3-0.4-5c0-0.7-0.2-1.7-1-1.9c-0.6-0.1-1.3-0.1-1.9-0.1c0,2.9,0,5.8,0,8.8c0.5,0.1,1,0.1,1.6,0.1
				c0,0.1,0,0.2,0,0.3c-2.2,0-4.3,0-6.5,0c0-0.1,0-0.2,0-0.3c0.5,0,1.1,0,1.6-0.1c0-5.9,0-11.8,0-17.7c-0.5,0-1.1,0-1.6,0
				C110.3,1,110.3,0.9,110.3,0.8L110.3,0.8z M115.2,9.6c0.8-0.1,1.9,0.2,2.5-0.4c0.6-0.7,0.7-1.7,0.8-2.7c0-1.4,0.1-2.7-0.3-4.1
				c-0.2-0.5-0.5-1.1-1.1-1.2c-0.6-0.1-1.2-0.1-1.8-0.1C115.2,4,115.3,6.8,115.2,9.6z"/>
		</g>
	</g>
	<path class="st0" d="M13.5,4.4c-0.3-0.2-0.6-0.3-1-0.3h-0.9c-0.1,0-0.1,0.1-0.1,0.2v11.4c0,0.1,0,0.2,0.1,0.2h0.9
		c0.4,0,0.7-0.1,1-0.3c0.6-0.6,1-2.3,1-5.5C14.5,6.7,14.2,4.9,13.5,4.4z"/>
	<path class="st0" d="M12.3,0.5c-5.2,0-9.5,4.2-9.5,9.5s4.2,9.5,9.5,9.5s9.5-4.2,9.5-9.5S17.5,0.5,12.3,0.5z M12.8,16H8.3v-0.2l1,0
		c0.1,0,0.1-0.1,0.1-0.2V4.2c0-0.1,0-0.2-0.1-0.2l-1,0V3.9h4.5c2.3,0,4.2,2.2,4.2,6.1C16.9,13.8,15.1,16,12.8,16z"/>
</g>
</svg>
